<svg xmlns="http://www.w3.org/2000/svg" version="1.1" xmlns:xlink="http://www.w3.org/1999/xlink" xmlns:svgjs="http://svgjs.dev/svgjs" width="1500" height="1500" viewBox="0 0 1500 1500"><rect width="1500" height="1500" fill="#ffffff"></rect><g transform="matrix(0.6666666666666666,0,0,0.6666666666666666,250.83691087543338,220.4291497975708)"><svg viewBox="0 0 233 247" data-background-color="#ffffff" preserveAspectRatio="xMidYMid meet" height="1590" width="1500" xmlns="http://www.w3.org/2000/svg" xmlns:xlink="http://www.w3.org/1999/xlink"><g id="tight-bounds" transform="matrix(1,0,0,1,-0.19500023397597488,-0.09999999999999432)"><svg viewBox="0 0 233.39000046795195 247.2" height="247.2" width="233.39000046795195"><g><svg viewBox="0 0 395.52 418.92344917933053" height="247.2" width="233.39000046795195"><g transform="matrix(1,0,0,1,0,253.51289807026774)"><svg viewBox="0 0 395.52 165.4105511090628" height="165.4105511090628" width="395.52"><g id="textblocktransform"><svg viewBox="0 0 395.52 165.4105511090628" height="165.4105511090628" width="395.52" id="textblock"><g><svg viewBox="0 0 395.52 106.22055926188787" height="106.22055926188787" width="395.52"><g transform="matrix(1,0,0,1,0,0)"><svg width="395.52" viewBox="3.42 -36.04 171.98000000000002 46.2" height="106.22055926188787" data-palette-color="#332885"><path d="M25.73-13.33L25.73-12.92Q25.73-6.88 22.97-3.2 20.21 0.49 15.5 0.49L15.5 0.49Q10.69 0.49 7.93-2.56L7.93-2.56 7.93 10.16 3.42 10.16 3.42-26.42 7.54-26.42 7.76-23.49Q10.52-26.9 15.43-26.9L15.43-26.9Q20.19-26.9 22.96-23.32 25.73-19.73 25.73-13.33L25.73-13.33ZM21.22-13.43L21.22-13.43Q21.22-17.9 19.31-20.48 17.41-23.07 14.09-23.07L14.09-23.07Q9.99-23.07 7.93-19.43L7.93-19.43 7.93-6.81Q9.96-3.2 14.14-3.2L14.14-3.2Q17.38-3.2 19.3-5.77 21.22-8.35 21.22-13.43ZM36.37-26.42L36.37 0 31.86 0 31.86-26.42 36.37-26.42ZM31.49-33.42L31.49-33.42Q31.49-34.52 32.16-35.28 32.83-36.04 34.15-36.04 35.47-36.04 36.15-35.28 36.84-34.52 36.84-33.42 36.84-32.32 36.15-31.59 35.47-30.86 34.15-30.86 32.83-30.86 32.16-31.59 31.49-32.32 31.49-33.42ZM54.19-3.2L54.19-3.2Q56.61-3.2 58.42-4.66 60.22-6.13 60.42-8.33L60.42-8.33 64.69-8.33Q64.57-6.05 63.13-4 61.69-1.95 59.28-0.73 56.88 0.49 54.19 0.49L54.19 0.49Q48.8 0.49 45.61-3.11 42.43-6.71 42.43-12.96L42.43-12.96 42.43-13.72Q42.43-17.58 43.84-20.58 45.26-23.58 47.91-25.24 50.56-26.9 54.17-26.9L54.17-26.9Q58.61-26.9 61.56-24.24 64.5-21.58 64.69-17.33L64.69-17.33 60.42-17.33Q60.22-19.9 58.48-21.55 56.73-23.19 54.17-23.19L54.17-23.19Q50.73-23.19 48.84-20.72 46.94-18.24 46.94-13.55L46.94-13.55 46.94-12.7Q46.94-8.13 48.82-5.66 50.7-3.2 54.19-3.2ZM71.38-32.81L75.9-32.81 75.9-26.42 80.83-26.42 80.83-22.92 75.9-22.92 75.9-6.54Q75.9-4.96 76.56-4.16 77.21-3.37 78.8-3.37L78.8-3.37Q79.58-3.37 80.95-3.66L80.95-3.66 80.95 0Q79.17 0.49 77.48 0.49L77.48 0.49Q74.46 0.49 72.92-1.34 71.38-3.17 71.38-6.54L71.38-6.54 71.38-22.92 66.57-22.92 66.57-26.42 71.38-26.42 71.38-32.81ZM84.41-13.13L84.41-13.45Q84.41-17.33 85.94-20.43 87.47-23.54 90.19-25.22 92.91-26.9 96.4-26.9L96.4-26.9Q101.8-26.9 105.13-23.17 108.46-19.43 108.46-13.23L108.46-13.23 108.46-12.92Q108.46-9.06 106.98-5.99 105.51-2.93 102.76-1.22 100.01 0.49 96.45 0.49L96.45 0.49Q91.08 0.49 87.75-3.25 84.41-6.98 84.41-13.13L84.41-13.13ZM88.95-12.92L88.95-12.92Q88.95-8.52 90.99-5.86 93.03-3.2 96.45-3.2L96.45-3.2Q99.89-3.2 101.92-5.9 103.95-8.59 103.95-13.45L103.95-13.45Q103.95-17.8 101.88-20.5 99.82-23.19 96.4-23.19L96.4-23.19Q93.06-23.19 91.01-20.53 88.95-17.87 88.95-12.92ZM136.44-13.33L136.44-12.92Q136.44-6.88 133.68-3.2 130.92 0.49 126.21 0.49L126.21 0.49Q121.4 0.49 118.64-2.56L118.64-2.56 118.64 10.16 114.12 10.16 114.12-26.42 118.25-26.42 118.47-23.49Q121.23-26.9 126.13-26.9L126.13-26.9Q130.9-26.9 133.67-23.32 136.44-19.73 136.44-13.33L136.44-13.33ZM131.92-13.43L131.92-13.43Q131.92-17.9 130.02-20.48 128.11-23.07 124.79-23.07L124.79-23.07Q120.69-23.07 118.64-19.43L118.64-19.43 118.64-6.81Q120.67-3.2 124.84-3.2L124.84-3.2Q128.09-3.2 130-5.77 131.92-8.35 131.92-13.43ZM147.08-26.42L147.08 0 142.56 0 142.56-26.42 147.08-26.42ZM142.2-33.42L142.2-33.42Q142.2-34.52 142.87-35.28 143.54-36.04 144.86-36.04 146.18-36.04 146.86-35.28 147.54-34.52 147.54-33.42 147.54-32.32 146.86-31.59 146.18-30.86 144.86-30.86 143.54-30.86 142.87-31.59 142.2-32.32 142.2-33.42ZM164.9-3.2L164.9-3.2Q167.32-3.2 169.12-4.66 170.93-6.13 171.13-8.33L171.13-8.33 175.4-8.33Q175.28-6.05 173.84-4 172.39-1.95 169.99-0.73 167.59 0.49 164.9 0.49L164.9 0.49Q159.5 0.49 156.32-3.11 153.13-6.71 153.13-12.96L153.13-12.96 153.13-13.72Q153.13-17.58 154.55-20.58 155.96-23.58 158.61-25.24 161.26-26.9 164.88-26.9L164.88-26.9Q169.32-26.9 172.26-24.24 175.2-21.58 175.4-17.33L175.4-17.33 171.13-17.33Q170.93-19.9 169.18-21.55 167.44-23.19 164.88-23.19L164.88-23.19Q161.43-23.19 159.54-20.72 157.65-18.24 157.65-13.55L157.65-13.55 157.65-12.7Q157.65-8.13 159.53-5.66 161.41-3.2 164.9-3.2Z" opacity="1" transform="matrix(1,0,0,1,0,0)" fill="#000000" class="wordmark-text-0" data-fill-palette-color="primary" id="text-0"></path></svg></g></svg></g><g transform="matrix(1,0,0,1,75.54432,131.2966840101973)"><svg viewBox="0 0 244.43135999999998 34.11386709886547" height="34.11386709886547" width="244.43135999999998"><g transform="matrix(1,0,0,1,0,0)"><svg width="244.43135999999998" viewBox="1 -38.1 277.62 38.75" height="34.11386709886547" data-palette-color="#332885"><path d="M6.8-31.95L9.85-31.95Q9.5-30.25 9.22-28.43 8.95-26.6 8.85-24.85L8.85-24.85 15.35-24.85 14.5-21.7 8.85-21.7 8.85-5.8Q8.85-4.85 9.08-4.13 9.3-3.4 9.88-3.03 10.45-2.65 11.5-2.65L11.5-2.65Q12.3-2.65 13.1-2.8 13.9-2.95 14.65-3.15L14.65-3.15 15.35-0.35Q14.1 0 12.98 0.28 11.85 0.55 10.4 0.55L10.4 0.55Q7.2 0.55 5.95-1.15 4.7-2.85 4.7-5.9L4.7-5.9 4.7-21.7 1-21.7 1-24.2Q3-24.25 4.15-25.53 5.3-26.8 5.9-28.6 6.5-30.4 6.8-31.95L6.8-31.95ZM19.8-38.1L24.55-38.1 24.55-21.9Q26.15-23.4 28-24.45 29.85-25.5 32.1-25.5L32.1-25.5Q34.85-25.5 36.5-24.35 38.15-23.2 38.9-21.23 39.65-19.25 39.65-16.65L39.65-16.65 39.65 0 35.55 0 35.55-15.3Q35.55-16.85 35.32-18.32 35.1-19.8 34.25-20.8 33.4-21.8 31.4-21.8L31.4-21.8Q30.15-21.8 28.92-21.3 27.7-20.8 26.6-20.05 25.5-19.3 24.55-18.5L24.55-18.5 24.55 0 20.45 0 20.45-35.15 19.8-38.1ZM52.95-33.2L52.95-33.2Q52.95-31.95 52.07-31.05 51.2-30.15 49.9-30.15L49.9-30.15Q48.65-30.15 47.77-31.05 46.9-31.95 46.9-33.2L46.9-33.2Q46.9-34.45 47.77-35.35 48.65-36.25 49.9-36.25L49.9-36.25Q51.15-36.25 52.05-35.35 52.95-34.45 52.95-33.2ZM47.3-24.85L52.05-24.85 52.05 0 47.9 0 47.9-21.9 47.3-24.85ZM58.59-24.65L63.14-25.25Q63.49-24.4 63.74-23.5 63.99-22.6 64.09-21.7L64.09-21.7Q65.59-23.2 67.64-24.33 69.69-25.45 71.84-25.45L71.84-25.45Q74.59-25.45 76.27-24.3 77.94-23.15 78.69-21.18 79.44-19.2 79.44-16.6L79.44-16.6 79.44 0 75.34 0 75.34-15.25Q75.34-16.8 75.12-18.3 74.89-19.8 74.02-20.78 73.14-21.75 71.14-21.75L71.14-21.75Q69.94-21.75 68.69-21.28 67.44-20.8 66.34-20.05 65.24-19.3 64.34-18.45L64.34-18.45 64.34 0 60.24 0 60.24-17.6Q60.24-18.6 60.09-19.93 59.94-21.25 59.59-22.53 59.24-23.8 58.59-24.65L58.59-24.65ZM86.99-38.1L91.79-38.1 91.79-14.6 101.09-24.85 105.54-24.85 95.99-14.4 106.89 0 101.94 0 91.79-13.5 91.79 0 87.64 0 87.64-35.15 86.99-38.1ZM128.44-25.45L128.44-25.45Q132.39-25.45 134.39-23.3 136.39-21.15 136.39-17.25L136.39-17.25 136.39-4.8Q136.39-3.75 136.79-3.38 137.19-3 137.74-3L137.74-3Q138.19-3 138.69-3.13 139.19-3.25 139.64-3.45L139.64-3.45 140.54-0.75Q139.74-0.3 138.51 0.08 137.29 0.45 135.99 0.45L135.99 0.45Q134.69 0.45 133.64-0.28 132.59-1 132.34-2.95L132.34-2.95Q130.89-1.4 128.94-0.43 126.99 0.55 124.84 0.55L124.84 0.55Q121.89 0.55 119.94-1.2 117.99-2.95 117.99-6L117.99-6Q117.99-8.85 119.36-10.55 120.74-12.25 122.94-13.1 125.14-13.95 127.61-14.25 130.09-14.55 132.24-14.55L132.24-14.55 132.24-17.2Q132.24-19.3 131.39-20.75 130.54-22.2 128.09-22.2L128.09-22.2Q126.19-22.2 124.44-21.45 122.69-20.7 120.94-19.25L120.94-19.25 118.89-22.2Q120.94-23.85 123.39-24.65 125.84-25.45 128.44-25.45ZM132.24-9.7L132.24-11.3Q130.89-11.3 129.19-11.18 127.49-11.05 125.89-10.58 124.29-10.1 123.26-9.05 122.24-8 122.24-6.15L122.24-6.15Q122.24-4.5 123.36-3.73 124.49-2.95 126.19-2.95L126.19-2.95Q127.99-2.95 129.34-3.95 130.69-4.95 131.46-6.5 132.24-8.05 132.24-9.7L132.24-9.7ZM155.73-25.35L155.73-25.35Q158.33-25.35 160.28-24.25 162.23-23.15 163.51-21.28 164.78-19.4 165.43-17.15 166.08-14.9 166.08-12.55L166.08-12.55Q166.08-9.2 164.91-6.18 163.73-3.15 161.31-1.25 158.88 0.65 155.13 0.65L155.13 0.65Q153.03 0.65 151.11-0.15 149.18-0.95 147.83-2.55L147.83-2.55 146.93 0.05 144.43 0.05Q144.48-0.8 144.53-1.68 144.58-2.55 144.58-3.4L144.58-3.4 144.58-35.2 143.88-38.1 148.73-38.1 148.73-24.3Q148.73-23.85 148.71-23.43 148.68-23 148.63-22.55L148.63-22.55Q150.23-24 151.91-24.68 153.58-25.35 155.73-25.35ZM154.68-21.8L154.68-21.8Q153.03-21.8 151.46-21.03 149.88-20.25 148.73-19.05L148.73-19.05 148.73-9.95Q148.73-7.85 149.33-6.15 149.93-4.45 151.31-3.45 152.68-2.45 154.98-2.45L154.98-2.45Q156.88-2.45 158.16-3.43 159.43-4.4 160.18-5.93 160.93-7.45 161.28-9.18 161.63-10.9 161.63-12.4L161.63-12.4Q161.63-14.05 161.26-15.7 160.88-17.35 160.06-18.73 159.23-20.1 157.91-20.95 156.58-21.8 154.68-21.8ZM181.63 0.65L181.63 0.65Q177.98 0.65 175.51-1.18 173.03-3 171.81-5.95 170.58-8.9 170.58-12.25L170.58-12.25Q170.58-15.6 171.91-18.63 173.23-21.65 175.78-23.55 178.33-25.45 181.93-25.45L181.93-25.45Q185.63-25.45 188.11-23.65 190.58-21.85 191.81-18.9 193.03-15.95 193.03-12.55L193.03-12.55Q193.03-9.15 191.73-6.13 190.43-3.1 187.88-1.23 185.33 0.65 181.63 0.65ZM181.68-2.5L181.68-2.5Q183.63-2.5 184.96-3.43 186.28-4.35 187.11-5.85 187.93-7.35 188.28-9.08 188.63-10.8 188.63-12.4L188.63-12.4Q188.63-14.05 188.31-15.78 187.98-17.5 187.23-18.98 186.48-20.45 185.16-21.38 183.83-22.3 181.88-22.3L181.88-22.3Q179.93-22.3 178.61-21.38 177.28-20.45 176.48-18.95 175.68-17.45 175.33-15.73 174.98-14 174.98-12.4L174.98-12.4Q174.98-10.85 175.33-9.13 175.68-7.4 176.46-5.9 177.23-4.4 178.53-3.45 179.83-2.5 181.68-2.5ZM198.58-24.85L203.38-24.85 203.38-9.55Q203.38-8.1 203.63-6.58 203.88-5.05 204.75-4.05 205.63-3.05 207.53-3.05L207.53-3.05Q209.38-3.05 210.9-3.85 212.43-4.65 213.38-6.08 214.33-7.5 214.33-9.4L214.33-9.4 214.33-21.9Q214.33-21.95 214.18-22.63 214.03-23.3 213.88-24.03 213.73-24.75 213.68-24.85L213.68-24.85 218.48-24.85 218.48-4.85Q218.48-3.9 218.8-3.45 219.13-3 219.83-3L219.83-3Q220.53-3 221.73-3.45L221.73-3.45 222.63-0.75Q221.63-0.2 220.4 0.13 219.18 0.45 218.08 0.45L218.08 0.45Q216.78 0.45 215.78-0.3 214.78-1.05 214.48-2.95L214.48-2.95Q213.03-1.45 211-0.4 208.98 0.65 206.83 0.65L206.83 0.65Q204.08 0.65 202.4-0.5 200.73-1.65 199.98-3.63 199.23-5.6 199.23-8.2L199.23-8.2 199.23-21.9 198.58-24.85ZM229.68-31.95L232.73-31.95Q232.38-30.25 232.1-28.43 231.83-26.6 231.73-24.85L231.73-24.85 238.23-24.85 237.38-21.7 231.73-21.7 231.73-5.8Q231.73-4.85 231.95-4.13 232.18-3.4 232.75-3.03 233.33-2.65 234.38-2.65L234.38-2.65Q235.18-2.65 235.98-2.8 236.78-2.95 237.53-3.15L237.53-3.15 238.23-0.35Q236.98 0 235.85 0.28 234.73 0.55 233.28 0.55L233.28 0.55Q230.08 0.55 228.83-1.15 227.58-2.85 227.58-5.9L227.58-5.9 227.58-21.7 223.88-21.7 223.88-24.2Q225.88-24.25 227.03-25.53 228.18-26.8 228.78-28.6 229.38-30.4 229.68-31.95L229.68-31.95ZM259.97-33.2L259.97-33.2Q259.97-31.95 259.1-31.05 258.22-30.15 256.92-30.15L256.92-30.15Q255.67-30.15 254.8-31.05 253.92-31.95 253.92-33.2L253.92-33.2Q253.92-34.45 254.8-35.35 255.67-36.25 256.92-36.25L256.92-36.25Q258.17-36.25 259.07-35.35 259.97-34.45 259.97-33.2ZM254.32-24.85L259.07-24.85 259.07 0 254.92 0 254.92-21.9 254.32-24.85ZM270.07-31.95L273.12-31.95Q272.77-30.25 272.49-28.43 272.22-26.6 272.12-24.85L272.12-24.85 278.62-24.85 277.77-21.7 272.12-21.7 272.12-5.8Q272.12-4.85 272.34-4.13 272.57-3.4 273.14-3.03 273.72-2.65 274.77-2.65L274.77-2.65Q275.57-2.65 276.37-2.8 277.17-2.95 277.92-3.15L277.92-3.15 278.62-0.35Q277.37 0 276.24 0.28 275.12 0.55 273.67 0.55L273.67 0.55Q270.47 0.55 269.22-1.15 267.97-2.85 267.97-5.9L267.97-5.9 267.97-21.7 264.27-21.7 264.27-24.2Q266.27-24.25 267.42-25.53 268.57-26.8 269.17-28.6 269.77-30.4 270.07-31.95L270.07-31.95Z" opacity="1" transform="matrix(1,0,0,1,0,0)" fill="#000000" class="slogan-text-1" data-fill-palette-color="secondary" id="text-1"></path></svg></g></svg></g></svg></g></svg></g><g transform="matrix(1,0,0,1,75.54432000000001,0)"><svg viewBox="0 0 244.43135999999996 228.4367733219583" height="228.4367733219583" width="244.43135999999996"><g><svg xmlns="http://www.w3.org/2000/svg" xmlns:xlink="http://www.w3.org/1999/xlink" version="1.1" x="8" y="0" viewBox="7.802 7.801 84.39600000000002 84.398" enable-background="new 0 0 100 100" xml:space="preserve" height="228.4367733219583" width="228.43135999999996" class="icon-icon-0" data-fill-palette-color="accent" id="icon-0"><g fill="#332885" data-fill-palette-color="accent"><path d="M49.996 7.801C26.73 7.801 7.802 26.729 7.802 50c0 23.265 18.928 42.199 42.194 42.199 23.271 0 42.202-18.934 42.202-42.199C92.198 26.729 73.267 7.801 49.996 7.801zM49.996 88.325c-21.129 0-38.323-17.191-38.323-38.325 0-21.137 17.194-38.328 38.323-38.328 21.138 0 38.33 17.191 38.33 38.328C88.326 71.134 71.134 88.325 49.996 88.325z" fill="#000000" data-fill-palette-color="accent"></path><polygon points="42.701,49.677 25.864,70.709 74.136,50.003 25.864,29.291  " fill="#000000" data-fill-palette-color="accent"></polygon></g></svg></g></svg></g><g></g></svg></g><defs></defs></svg><rect width="233.39000046795195" height="247.2" fill="none" stroke="none" visibility="hidden"></rect></g></svg></g></svg>